/* XPM */
static char *cat_right_1[] = {
/* columns rows colors chars-per-pixel */
"32 32 13 1 ",
"  c None",
". c #2E1E22",
"X c #5C3000",
"o c #5B4211",
"O c #AF5F1D",
"+ c #C27635",
"@ c #C38811",
"# c #E3A324",
"$ c #EDB951",
"% c #928A8C",
"& c #D9D9DD",
"* c #C3D5EF",
"= c #E6F7FF",
/* pixels */
"                                ",
"                                ",
"                                ",
"                                ",
"                                ",
"                                ",
"                                ",
"                                ",
"                                ",
"                                ",
"                    o           ",
"                   o$o          ",
"    ooo           o#O$oo        ",
"   o##@o         o@$+Oo@oo      ",
"  o#@oo          o#$+$###@o     ",
"  o$o           o@#$#$$$$#@o    ",
"  o$o           o##$$$$$$$#o    ",
"  o$#o         o@#$$$$$$$$$@o   ",
"   o$o   oooooo@##$$$$#ooo##o   ",
"   o@#ooo@@#######$$$$@*.&@#o   ",
"    o@o@#$$$$$$$$#$$$$#=.%@$#o  ",
"     o@#$$$$$$$$$$$$$$$#XX#$.o  ",
"    o@#$$$$$$$$$$$$#$$$$$$$#@o  ",
"    o@#$$$$$$$$$$$$###$$$$#@o   ",
"    o#$$$$$######$$#@@##@@oo    ",
"    o#$$$$#@@@@#@#$$@ooooo      ",
"   o@$$$##@oooooo@$$$o          ",
"   o#$$@ooo@o o@@o#$$#o         ",
"   o#$$oo@@@o o@@o@#$$@o        ",
"   o@$$o ooo   oooo@$$#o        ",
"    ooo            oooo         ",
"                                "
};
