/* XPM */
static char *goal[] = {
/* columns rows colors chars-per-pixel */
"32 32 180 2 ",
"   c None",
".  c #2BBCFF",
"X  c #2EBDFF",
"o  c #2FBDFF",
"O  c #32BEFF",
"+  c #34BEFF",
"@  c #34BFFF",
"#  c #35BFFF",
"$  c #36BFFF",
"%  c #37BFFF",
"&  c #3AC1FF",
"*  c #47C4FF",
"=  c #47C5FF",
"-  c #48C5FF",
";  c #49C5FF",
":  c #4CC6FF",
">  c #4DC6FF",
",  c #4FC7FF",
"<  c #50C7FF",
"1  c #51C7FF",
"2  c #52C8FF",
"3  c #53C8FF",
"4  c #53C9FF",
"5  c #54C8FF",
"6  c #54C9FF",
"7  c #55C9FF",
"8  c #58CAFF",
"9  c #59CAFF",
"0  c #5BCBFF",
"q  c #5DCBFF",
"w  c #5ECCFF",
"e  c #5FCCFF",
"r  c #61CCFF",
"t  c #60CDFF",
"y  c #61CDFF",
"u  c #62CDFF",
"i  c #64CDFF",
"p  c #66CFFF",
"a  c #67CFFF",
"s  c #68CFFF",
"d  c #6AD0FF",
"f  c #6BD0FF",
"g  c #6CD1FF",
"h  c #6DD1FF",
"j  c #6FD1FF",
"k  c #70D2FF",
"l  c #72D2FF",
"z  c #72D3FF",
"x  c #73D3FF",
"c  c #74D3FF",
"v  c #77D4FF",
"b  c #79D4FF",
"n  c #78D5FF",
"m  c #79D5FF",
"M  c #7AD5FF",
"N  c #7BD5FF",
"B  c #7ED6FF",
"V  c #80D7FF",
"C  c #82D7FF",
"Z  c #82D8FF",
"A  c #83D8FF",
"S  c #84D8FF",
"D  c #86D8FF",
"F  c #89D9FF",
"G  c #89DAFF",
"H  c #8ADAFF",
"J  c #8BDAFF",
"K  c #8EDBFF",
"L  c #8FDCFF",
"P  c #92DCFF",
"I  c #93DCFF",
"U  c #92DDFF",
"Y  c #94DDFF",
"T  c #96DDFF",
"R  c #97DEFF",
"E  c #98DEFF",
"W  c #99DFFF",
"Q  c #9DE0FF",
"!  c #9EE0FF",
"~  c #9FE1FF",
"^  c #A0E1FF",
"/  c #A1E1FF",
"(  c #A2E2FF",
")  c #A4E2FF",
"_  c #A5E3FF",
"`  c #A7E3FF",
"'  c #A8E3FF",
"]  c #A8E4FF",
"[  c #ABE4FF",
"{  c #ACE5FF",
"}  c #ADE5FF",
"|  c #AEE5FF",
" . c #AFE5FF",
".. c #ADE6FF",
"X. c #AEE6FF",
"o. c #AFE6FF",
"O. c #B0E6FF",
"+. c #B1E6FF",
"@. c #B1E7FF",
"#. c #B2E6FF",
"$. c #B2E7FF",
"%. c #B3E7FF",
"&. c #B4E7FF",
"*. c #B5E7FF",
"=. c #B6E7FF",
"-. c #B8E8FF",
";. c #B9E8FF",
":. c #BAE9FF",
">. c #BBE9FF",
",. c #BDEAFF",
"<. c #BEEAFF",
"1. c #BFEAFF",
"2. c #BFEBFF",
"3. c #C0EBFF",
"4. c #C1EBFF",
"5. c #C2EBFF",
"6. c #C3EBFF",
"7. c #C2ECFF",
"8. c #C3ECFF",
"9. c #C4EDFF",
"0. c #C8EEFF",
"q. c #CBEEFF",
"w. c #CBEFFF",
"e. c #CEEFFF",
"r. c #CFF0FF",
"t. c #D0F0FF",
"y. c #D1F0FF",
"u. c #D2F1FF",
"i. c #D3F1FF",
"p. c #D4F1FF",
"a. c #D6F2FF",
"s. c #D7F2FF",
"d. c #D8F3FF",
"f. c #D9F3FF",
"g. c #DAF3FF",
"h. c #DCF3FF",
"j. c #DBF4FF",
"k. c #DCF4FF",
"l. c #DDF4FF",
"z. c #DDF5FF",
"x. c #DEF5FF",
"c. c #DFF5FF",
"v. c #E0F5FF",
"b. c #E1F5FF",
"n. c #E2F5FF",
"m. c #E1F6FF",
"M. c #E3F6FF",
"N. c #E4F6FF",
"B. c #E5F6FF",
"V. c #E5F7FF",
"C. c #E6F7FF",
"Z. c #E7F7FF",
"A. c #E7F8FF",
"S. c #E8F8FF",
"D. c #E9F8FF",
"F. c #EAF8FF",
"G. c #EAF9FF",
"H. c #EBF9FF",
"J. c #ECF9FF",
"K. c #EDF9FF",
"L. c #EEF9FF",
"P. c #EEFAFF",
"I. c #EFFAFF",
"U. c #F0FAFF",
"Y. c #F0FBFF",
"T. c #F1FBFF",
"R. c #F2FBFF",
"E. c #F4FBFF",
"W. c #F4FCFF",
"Q. c #F5FCFF",
"!. c #F6FCFF",
"~. c #F7FCFF",
"^. c #F7FDFF",
"/. c #F8FDFF",
"(. c #F9FDFF",
"). c #FAFDFF",
"_. c #FBFEFF",
"`. c #FCFEFF",
"'. c #FDFEFF",
"]. c #FEFFFF",
/* pixels */
"                                                                ",
"                                                                ",
"                                                                ",
"                                                                ",
"                                                                ",
"                      & 2 N ~ ` ` G l 2 &                       ",
"                + l 2.i.C.!.`.`.`.`.C.i.y.2.f +                 ",
"            + G r.i.=.G ` !.z.~ C.J.S e l =.i.i.G +             ",
"          e q.C...e     $.J.S   S J.$.      p ..A.q.p           ",
"        C C.J...N p e ~ A.A.l   l A.J.U > > e l ..J.C.C         ",
"      S J.`.!.!.C.z.C.!.`.!.C.i.z.!.`.!.C.i.z.C.!.`.`.D.~       ",
"    p C.`.J.=.....5.J.!.C.2...=...2.C.`.!.5.=.......5.!.J.N     ",
"  + q.A.!.C.e     N J.i.2           e i.J.N         p J.`.i.%   ",
"  G i.l ` C.G     ..C.e               p C.$.        U J.i.J.G   ",
"+ q.U   & q.i.f N z.`                   ` C.l     = z.q.e ` q.+ ",
"2 i.>     1 z.J.!.r.+                   & q.i.=   5.z.2   2 i.1 ",
"N q..       ..`.`.S                       f C.2.` C.U     . q.N ",
"U 2.        U `.!.l                         =.!.`.q.+       2.U ",
"U 2.      + q.`.!.=.                        l !.`.U         2.U ",
"N q..     U C...2.C.f                       N `.`...      . q.N ",
"1 i.2   2 C.5.  = q.i.+                   + q.J.J.z.1     > i.2 ",
". q.` p q.z.>     p z.`                   ` C.S s z.5.+   U q.+ ",
"  G D.z.C.G         =.C.p               p C.=.    G C.~ f i.G   ",
"  + y.C.C.p         N J.i.2           e z.J.l     p C.!.C.q.+   ",
"    p C.z.2.=.....=.5.!.`.C.2.......5.C.`.J.2.....2.D.`.C.s     ",
"      S C.D.`.J.C.z.i.C.!.`.!.C.z.z.!.`.!.C.z.C.J.!.`.!.U       ",
"        N C.C...N e > > U C.C.l 1 l C.D.W e e N ..D.C.G         ",
"          e q.C...p       ..J.C   C J.2.    p ..C.q.p           ",
"            + G q.i.$.f e G !.z.W C.!.` G 2.y.i.G +             ",
"                & l 2.i.i.C.!.`.`.`.!.C.i.2.l +                 ",
"                      % 1 l G ` ` W l 2 +                       ",
"                                                                "
};
