/* XPM */
static char *hana[] = {
/* columns rows colors chars-per-pixel */
"32 32 225 2 ",
"   c None",
".  c #010101",
"X  c #0C0603",
"o  c #060B05",
"O  c #0C0B05",
"+  c #0C140B",
"@  c #0D1D0C",
"#  c #12160A",
"$  c #141C0C",
"%  c #121B12",
"&  c #121D18",
"*  c #100C04",
"=  c #0E230D",
"-  c #13250E",
";  c #112B0F",
":  c #15390D",
">  c #162512",
",  c #142C13",
"<  c #1B2E15",
"1  c #132E1A",
"2  c #1A2A1B",
"3  c #153314",
"4  c #1B3417",
"5  c #1A3B15",
"6  c #16351C",
"7  c #19331A",
"8  c #1B3B1D",
"9  c #173B14",
"0  c #0F2E14",
"q  c #3D2617",
"w  c #30301E",
"e  c #283515",
"r  c #182621",
"t  c #193A24",
"y  c #4E331E",
"u  c #71311F",
"i  c #6B3623",
"p  c #732D22",
"a  c #1A4515",
"s  c #1D4B16",
"d  c #1C431D",
"f  c #1D4A1C",
"g  c #164214",
"h  c #1D5315",
"j  c #1C5119",
"k  c #244C1C",
"l  c #284719",
"z  c #33491C",
"x  c #21561A",
"c  c #235E1B",
"v  c #295D1D",
"b  c #275519",
"n  c #266419",
"m  c #276D1C",
"M  c #2B6A1B",
"N  c #246516",
"B  c #37691E",
"V  c #2C701A",
"C  c #2E7A1A",
"Z  c #37731E",
"A  c #1E4524",
"S  c #1A4926",
"D  c #1F5526",
"F  c #224D25",
"G  c #244322",
"H  c #235222",
"J  c #2B5624",
"K  c #2B5D29",
"L  c #255A28",
"P  c #375A29",
"I  c #2C5F30",
"U  c #355232",
"Y  c #3C5735",
"T  c #334D2C",
"R  c #27622D",
"E  c #29622D",
"W  c #366727",
"Q  c #2E7726",
"!  c #397527",
"~  c #296734",
"^  c #386833",
"/  c #3A7837",
"(  c #56471C",
")  c #45631F",
"_  c #5A462C",
"`  c #475529",
"'  c #495B35",
"]  c #6E4F23",
"[  c #7B4D3A",
"{  c #71532F",
"}  c #466829",
"|  c #4A653A",
" . c #586938",
".. c #54763A",
"X. c #526E33",
"o. c #68683D",
"O. c #6F7E3E",
"+. c #6D6632",
"@. c #7B5B43",
"#. c #746543",
"$. c #7A7949",
"%. c #657446",
"&. c #97231F",
"*. c #8D3327",
"=. c #8B3B2C",
"-. c #9B342B",
";. c #933B2B",
":. c #9A3C2E",
">. c #A72B2A",
",. c #A4322C",
"<. c #AA302E",
"1. c #AA3531",
"2. c #B03837",
"3. c #834329",
"4. c #894935",
"5. c #964739",
"6. c #86553D",
"7. c #B8473F",
"8. c #A54F3B",
"9. c #836F3E",
"0. c #9A5748",
"q. c #815740",
"w. c #B85545",
"e. c #B55B55",
"r. c #AC524C",
"t. c #947A58",
"y. c #886D4A",
"u. c #AA6353",
"i. c #B86C57",
"p. c #A0745F",
"a. c #B37857",
"s. c #A86C47",
"d. c #AF7968",
"f. c #C44B49",
"g. c #C55C54",
"h. c #DB5B59",
"j. c #C3514F",
"k. c #C56759",
"l. c #D6645E",
"z. c #D66965",
"x. c #D67866",
"c. c #DC7B76",
"v. c #C8766F",
"b. c #E96966",
"n. c #F46B69",
"m. c #E4726A",
"M. c #F9726F",
"N. c #F5726E",
"B. c #E87F7C",
"V. c #F87774",
"C. c #30821D",
"Z. c #2E841E",
"A. c #3A8827",
"S. c #389627",
"D. c #3D8434",
"F. c #3D9434",
"G. c #38A123",
"H. c #449D2B",
"J. c #48992E",
"K. c #4B8938",
"L. c #548539",
"P. c #5D9936",
"I. c #599539",
"U. c #498F2A",
"Y. c #68873C",
"T. c #629E3B",
"R. c #79863E",
"E. c #4EA52D",
"W. c #4FA630",
"Q. c #57A935",
"!. c #4FAB2E",
"~. c #65A73B",
"^. c #73A93E",
"/. c #3B8E46",
"(. c #549245",
"). c #718A45",
"_. c #6F9B4B",
"`. c #54AB47",
"'. c #50B14D",
"]. c #6DA148",
"[. c #75A84A",
"{. c #75B848",
"}. c #77B853",
"|. c #65B044",
" X c #5CC566",
".X c #888449",
"XX c #968C54",
"oX c #BC885C",
"OX c #85AF4A",
"+X c #83B652",
"@X c #8FB454",
"#X c #A7A95A",
"$X c #A6B65C",
"%X c #B1A55D",
"&X c #B39D71",
"*X c #A5AB71",
"=X c #C4975F",
"-X c #C78B6A",
";X c #D78874",
":X c #F1826F",
">X c #E58379",
",X c #97CA5C",
"<X c #92C664",
"1X c #B0C664",
"2X c #C09C81",
"3X c #E68B84",
"4X c #F78985",
"5X c #EB9489",
"6X c #E99C97",
"7X c #F39C9B",
"8X c #F99593",
"9X c #F3918E",
"0X c #C6A386",
"qX c #E7A59B",
"wX c #F6A19D",
"eX c #F4A7A5",
"rX c #FCA5A3",
"tX c #F6ADAB",
"yX c #FBACAB",
"uX c #F8AAA7",
"iX c #FBB1AD",
"pX c #FDB5B3",
"aX c #FFBCBB",
"sX c #F8B7B4",
"dX c #EAA7A1",
/* pixels */
"                                                                ",
"                                                                ",
"                                                                ",
"                        S.A.-X-XQ Q n                           ",
"                      U.Q.$XrX4X#X{.A.c                         ",
"                  E.Q.{. X<XV.:X1XOX^ X.  B ! n                 ",
"                  5X%X}.!.`.OX$X,XoXrX6XP n T.T.}               ",
"                aXaX;X{.!.Q.G.!.+XoXrXwX` ` I.*X&X..            ",
"          4XwX;XaXtX+.E.^.'.~.%.5Xc.f.w.8X8XO.0XyXqX9 A         ",
"        9.pXaX3X<.eXtXi.~.E.K.| sXaX2.>.yXyXY._.2X).- # q       ",
"      V X.:XyXz.f.pXaX;X.X}.].%.Y U eXuXz.i.Q I ' E 9 l *.-.    ",
"    m C } ).g.aXpXw.B.l.o.}.[.^ U 6.yXpXp.S R } ' #.k Z :.-.    ",
"    B ] ) c =XrXrXs.8.( v B R D S ~ U U $.~ K E N.l.s.k.$.6.    ",
"    ] ,.3.Z ^.=XOX!.~...B N L S G / A.~.+XL.' _ 7.,.c.7Xe.<     ",
"      ;.+.P.E.C.H.H.Y.o.P X.v G A R K.}.].XXn.h.&.&.v.sXr.#     ",
"      J o.E.E.U.].Y.P dXpX-XH x Y ..L.~ K.XXN.h.>.r.| Y q # >   ",
"    L a.9Xk.D.K.$.t.y.yXpX1.#.G _.+X+X/ 3 A 0.g.i.uX7X5.6 d 6 & ",
"  n H.3XyXz.G 8 u.aXpXw.1.uXyX).[.~.%X5Xi.f d 6 @.e.v.@.6 j W , ",
"  V F.t.m.6.r 8 0.pX6Xh.f.7X7X#._.I.tXaXm.u l k P P o.T 6 g C = ",
"1 n Q /.D S R (.` [ i.yX9Xg.[ ' dXeX5XeXrX9X5. .K.T.} 1 1 8 6 = ",
"8 R d d j d ~ { :.-.%.8X>Xb K t.iXtXf.<.yXpX3.q.a ! T.8 6 7 , + ",
"1 Z.F t R /.}.).:.=.F 2 7 x ! ..d.0.2X3Xq.i | ..=.,.*.; 5 h : X ",
", c x 6 D `.,X(.../ ` z.g.' b F , _ 6X6X| T ~ P.:.,.*.4 g h : X ",
"  7 n f j G.G.'.{./ t.>XB.k.#.W J , w u.q.I G P.] i l 5 3 6 > X ",
"    4 6 5 m S.S.I.z.n.>.<.n.N.$X^ F b ! s e > > ; c h f s L 2 o ",
"    % + @ 8 d A 2 n.n.>.>.M.V.#X}.} T.P.S y p e 9 s s 3 m f ;   ",
"      . o ; 3 @ ; 8.f.M.n.7.8.) ! W v x P -.>.w 3 ; ; 3 5 < X   ",
"        . + = > ; > T l.M.i.e V N N x x k ;.-.e $ > 8 6 $ * .   ",
"          . . . . + g h J z 3 a 3 m Z.h d < > > $ < , $ X .     ",
"              . . . a = ; = = 3 d f f 5 % % X o o . . .         ",
"                      X @ @ , a f t r > X . . . .               ",
"                              % % +                             "
};
