/* XPM */
static char *kara_takara[] = {
/* columns rows colors chars-per-pixel */
"32 32 16 1 ",
"  c None",
". c #380000",
"X c #3F1200",
"o c #540000",
"O c #5F0000",
"+ c #6C0000",
"@ c #5A2D00",
"# c #764900",
"$ c #840000",
"% c #936500",
"& c #AE8200",
"* c #CA9D00",
"= c #D8AB00",
"- c #E3BA00",
"; c #F2DF04",
": c #FFFF08",
/* pixels */
" @@@@@@@@@@@@@####@@@@@@@@@@@@@ ",
" @;#--------@&----&@&-------#-@ ",
" @;;;;;;;;;;&-%%%%-%&;;;;;;;;;@ ",
" @@@@@@@@@@@:;&XX&-%@@@@@@@@@@@ ",
" XXXXXXXXXXXX-::::%XXXXXXXXXXXX ",
" XXXXXXXXXXXXXXXXXXXXXXXXXXXXXX ",
" #############################@ ",
" #%%%%%%%%%%%%%%%%%%%%%%%%%%%%@ ",
" #==%&*********************&==@ ",
" #;=%&&&&&&&&&&&&&&&&&&&&&&&-=@ ",
" #:;.oooooooooooooooOOOOOOOO--@ ",
" #:;.ooooooooOOOOOOO+++$+$$$;-@ ",
" #:;..ooooooooOOOOOOO++++++$;-@ ",
" #:;...ooooooooOOOOOOO++++++;-@ ",
" #:;....ooooooooOOOOOOO+++++;-@ ",
" #:;.....ooooooooOOOOOOO++++;-@ ",
" #:;........................;-@ ",
" #:;........................;-@ ",
" #:;........................;-@ ",
" #:;----------;;;;----------;-@ ",
" #:::::::;:;;;****;;::::;:;;;-@ ",
" X**********&@&@@&%-*********#X ",
" X-#*********&@&&%-*********@#X ",
" X-**ooooo%%oooooooo%%ooooo*&#X ",
" X-**o++++-*o+++++++-*o++++-&#X ",
" X-**o++++-*o+++++++-*o++++-&#X ",
" X-&&oOOOO-&oOOOOOOO-&oOOOO-&#X ",
" X-&&oOOOO-&oOOOOOOO-&oOOOO*&#X ",
" X-&&%**--##%****---##%**--&%#X ",
" X-&&%%%%%%%%%%%%%%%%%%%%%%%%#X ",
" X-@%%%%%%%@%%%%%%%%@%%%%%%%@#X ",
" X*%##########################X "
};
