/* XPM */
static char *mae[] = {
/* columns rows colors chars-per-pixel */
"32 32 32 1 ",
"  c None",
". c #2E1E22",
"X c #323234",
"o c #4D3B2F",
"O c #534721",
"+ c #444444",
"@ c gray32",
"# c #785B49",
"$ c #6C6E5D",
"% c #78655C",
"& c #6C6C6C",
"* c #767678",
"= c #9D704C",
"- c #8E6C56",
"; c #A37E67",
": c #8F917D",
"> c #D7906E",
", c #8D8D8D",
"< c #928A8C",
"1 c #ACAE9F",
"2 c gray64",
"3 c gray71",
"4 c #BEBFB3",
"5 c gray",
"6 c #EEBE93",
"7 c #FFE1AF",
"8 c gray83",
"9 c #D9D9DD",
"0 c #C3D5EF",
"q c #FFF7E1",
"w c #E6F7FF",
"e c white",
/* pixels */
"            ooooooooo           ",
"          oo##-----##oo         ",
"        oo#--;;;;;;;--#oo       ",
"       o#--;;;;;;;;;;;--#o      ",
"      o#--;;;;;;;;;;;;;--#o     ",
"     o#--;;;;;;;;;;;;;;;--#o    ",
"     o#--;;;;;;;5;;;;;;;--#o    ",
"     o#---;;;5558555;;;---#o    ",
"     O2##225558888855522##2O    ",
"      O222&&,3,&3&,3,&&222O     ",
"     X@@@&,@&,&@,@&,&@,&@@@X    ",
"     X@@&,@>@@@>@>@@@>@,&@@X    ",
"     X@@&,>XXX>767>XXX>,&@@X    ",
"     X@&,3X0.9677769.0X3,&@X    ",
"    X@@&,3Xw.<67776<.wX3,&@@X   ",
"    X@X&,36e++7qqq7++e63,&X@X   ",
"   X@@X&,,>6**qqqqq**6>,,&X@@X  ",
"   X@@X@,,O>67qqqqq76>O,,@X@@X  ",
"   X@&X@&,:O=67qqq76=O:,&@X&@X  ",
"   X@&@X&,::OO>666>OO::,&X@&@X  ",
"   X@&@o@&#:1:OOOOO:1:#&@o@&@X  ",
"   X@@o#@&#-:1444441:-#&@#o@@X  ",
"    X@o-;@o##1144411##o@;-o@X   ",
"     O2;;#o##2-----2##o#;;2O    ",
"     O78-#o-#5;;;;;5#-o#-87O    ",
"     O765o#--8;;;;;8--#o567O    ",
"      O25o---8;;;;;8---o52O     ",
"       O$:#-;5;;;;;5;-#:$O      ",
"        $:11;;58885;;11:$       ",
"         $$:114444411:$$        ",
"           O%%%O$O%%%O          ",
"            OOO   OOO           "
};
