/* XPM */
static char *mae_1[] = {
/* columns rows colors chars-per-pixel */
"32 32 34 1 ",
"  c None",
". c #2E1E22",
"X c #323234",
"o c #4D3B2F",
"O c #534721",
"+ c #444444",
"@ c gray32",
"# c #785B49",
"$ c #6A5C56",
"% c #6C6E5D",
"& c #78655C",
"* c #6C6C6C",
"= c #767678",
"- c #9D704C",
"; c #8E6C56",
": c #8B786F",
"> c #A37E67",
", c #8F917D",
"< c #D7906E",
"1 c #8D8D8D",
"2 c #928A8C",
"3 c #ACAE9F",
"4 c gray64",
"5 c gray71",
"6 c #BEBFB3",
"7 c gray",
"8 c #EEBE93",
"9 c #FFE1AF",
"0 c gray83",
"q c #D9D9DD",
"w c #C3D5EF",
"e c #FFF7E1",
"r c #E6F7FF",
"t c white",
/* pixels */
"                                ",
"            ooooooooo           ",
"          oo##;;;;;##oo         ",
"        oo#;;>>>>>>>;;#oo       ",
"       o#;;>>>>>>>>>>>;;#o      ",
"      o#;;>>>>>>>>>>>>>;;#o     ",
"     o#;;>>>>>>>>>>>>>>>;;#o    ",
"     o#;;>>>>>>>7>>>>>>>;;#o    ",
"     o#;;;>>>7770777>>>;;;#o    ",
"     O4##447770000077744##4O    ",
"      O444**151*5*151**444O     ",
"     X@@@*1@*1*@1@*1*@1*@@@X    ",
"     X@@*1@<@@@<@<@@@<@1*@@X    ",
"     X@@*1<XXX<989<XXX<1*@@X    ",
"     X@*15Xw.q89998q.wX51*@X    ",
"    X@@*15Xr.2899982.rX51*@@X   ",
"    X@X*158t++9eee9++t851*X@X   ",
"    X@X*11<8==eeeee==8<11*X@@X  ",
"    X@X*11O<89eeeee98<O11@X@@X  ",
"    X@X*1*,O-89eee98-O11*X@*@@X ",
"    X@@*1*,,OO<888<OO,1*@X@@*@X ",
"    X@O@*;;,3,OOOOO,3,1*@o@@*@X ",
"     O<@*;#;,3666663,;*@>#o@@@X ",
"     O<4@#o##3366633##@>>;o@@X  ",
"      O4##o##4;;;;;4##O70;oXX   ",
"      O4#oo;#7>>>>>7#;O997o     ",
"       Ooo#;;0>>>>>7;;O<87O     ",
"        o#;;>;0>>>>;7;O444O     ",
"        %,;>>>0>>>;;7;#O4O      ",
"        %33666600077333%O       ",
"         %%O&::$3333%%%         ",
"           O:::$%%%%            "
};
