/* XPM */
static char *siba[] = {
/* columns rows colors chars-per-pixel */
"32 32 98 2 ",
"   c #4E840C",
".  c #538805",
"X  c #54890C",
"o  c #5A8E0D",
"O  c #5F9107",
"+  c #5E910C",
"@  c #5B8E13",
"#  c #5A8B1A",
"$  c #5E9114",
"%  c #5F911A",
"&  c #639504",
"*  c #6C9600",
"=  c #649907",
"-  c #63950C",
";  c #6B970D",
":  c #679A0C",
">  c #6C9C0B",
",  c #729C01",
"<  c #729D0E",
"1  c #649414",
"2  c #689713",
"3  c #679914",
"4  c #6C9C13",
"5  c #65951B",
"6  c #68971A",
"7  c #6C9B1B",
"8  c #729F15",
"9  c #739F1B",
"0  c #6FA102",
"q  c #6FA00D",
"w  c #74A403",
"e  c #78A202",
"r  c #76A802",
"t  c #74A40B",
"y  c #79A40A",
"u  c #77A80C",
"i  c #7AAA0A",
"p  c #7EB001",
"a  c #6FA015",
"s  c #74A214",
"d  c #78A615",
"f  c #7CA914",
"g  c #75A21B",
"h  c #79A41B",
"j  c #7CA91C",
"k  c #659422",
"l  c #699721",
"z  c #67942B",
"x  c #6A972B",
"c  c #6F9B2E",
"v  c #739E24",
"b  c #739E2B",
"n  c #6E9A32",
"m  c #739D32",
"M  c #76A123",
"N  c #7AA424",
"B  c #7DA825",
"V  c #77A12A",
"C  c #7AA32C",
"Z  c #7EA82B",
"A  c #76A031",
"S  c #7CA433",
"D  c #7BA23B",
"F  c #80AF05",
"G  c #80AE0B",
"H  c #82B303",
"J  c #86B900",
"K  c #88BA03",
"L  c #83B10B",
"P  c #87B80B",
"I  c #81AE14",
"U  c #81AC1B",
"Y  c #86B215",
"T  c #88B612",
"R  c #8AB910",
"E  c #86B11C",
"W  c #8BB81D",
"Q  c #80A624",
"!  c #82AB24",
"~  c #82A72F",
"^  c #83AC2B",
"/  c #87B024",
"(  c #8AB32C",
")  c #80A632",
"_  c #83AB32",
"`  c #89AF34",
"'  c #81A63C",
"]  c #84AA3B",
"[  c #88AE3D",
"{  c #8BB230",
"}  c #8CB13D",
"|  c #81A541",
" . c #84A943",
".. c #89AD43",
"X. c #82A749",
"o. c #87AB4A",
"O. c #8AAC4B",
"+. c #8DAD53",
/* pixels */
"4 Q e J > i w 7 3 u 3 i L t = 4 K i H : s J J p u r : t t s U l ",
"! & j H i j N ] C C ^ 3 h p t ! Z | ' = X ! f s i j h L > s d ) ",
"w v N Z b ..Z V l % o.v ] 4 p ^ Z ' v 3 + p 4 3 s ! k o : i 1 s ",
"h Z ] 7 c Y p r 3 X D ..7 7 g u o ! b ) / p 3 g E i 3 + + J 5 1 ",
"p J u g g q j E D u u + k l ] j 1 # X 4 i w r u > @ H t u > w > ",
"f a i _ i 7 c ..D i R _ t g o.+.X.Z X - , d ! J 1 >  .k 5 g Z v ",
"t 4 R +.m % c   k i j s p q i p * > t H > > Z ] f t S z 2 1 m F ",
"< i S A A a : X h g n A u f i u 9  .! < + : / ] l u j K - 1 v E ",
"e J ] 5 j t f W S D V b D Z | $ S R ( 4 V } ] z h 7 : p j B B w ",
": 1 > @ 7 u E ) t c S % | x c A _ i Z ) B   ) 5 % + q f $ > S 7 ",
"Z > H h A E L L 0 ! C ..b 5 | V +.D v o.h # U 6   s l $ @ 5 s h ",
"5 s M O.h s S - > > h r p u  .) v ] 9 Z > > , W q 3 j p B 7 f w ",
"s j Z ^ | ( s > > w $ 7 s i h s 0 Z - w ( ) N U t t 7 r } N Z b ",
") U 1 S Z 9 [ N d 4   @  .# 4 , i j > G > >  .h s s > s w s O.] ",
"f i - 4 j i } / 6 m k s ) h > & < ; 9 ! + i ) 3 i t j h > % S - ",
"- D > s 4 - ) ! 9 ] ] 4 h S D o.; o 6 |  .- S 1 l % s > : + 4 + ",
"p ! i p 7 & > M ) F > ) 9 Z I ' y w - s +.L , i h F * M t ` h 8 ",
"j = 7 a - 1 l > f L > [ b 8 ! < 2 8 - 0 e y Q i E E d ^ N { H j ",
"H B 4 1 + r + : e + d v N 9 ^ E F @ X 1 h H u - s ! I ! ^ 6 t e ",
"! s f l 1 p i u + + ' z ) S % | Q h > w S / h 3 8 t K t ..l N s ",
"i ~ Y ^ Z + p : V f i @ M = . w e ~ i K ` ..U s h H N 8 U 1 h 8 ",
"H h ! f U O.l q A $ c M O i ! 8 N ) I ^ b 6 u > N ) B > e t h d ",
", j ) E + ) b  . .i l h > r e F > v m 9 t @ s t 5 m M > G f l i ",
"= v ) E 4 V 5 w p r 9 Z 2 ; h ] G l v 1 > + 8 r %  .M = I !  .i ",
"/ t ^ 9 - ' 7 ! ) 7 Z H ' o 9 * E ) Z 1 X $ N r / ^ h H > h ! r ",
"i h > % s h ^ v 9 9 ' Y m @ 2 9 J s t > p j q 3 i w G 4 + h I J ",
"U , - - 4 1 ) Z t 4 > > Z ' 7 $ N +.N 8 / + 3 4 0 Y U [ j H i H ",
"h O.l l b Z  .^ f s J t  .D 9 Z M | V f 3 > X - h L ^ +.U H i i ",
"E O.) l l } & M D ^ i > m G N o., ......u o X w i H D +.T I > > ",
"U Z W / l c - M Z S 1 L y J 9 ' +.E Z G w i h 7 M 9 Q U f N S v ",
"j q ! ^ 1 @ 4 t ( O.7 > ; w , Z h R y I h J M Z B : 8 1 > m S 4 ",
"7 H ..] 1 > s v ^ P + o 1 & < Z ../ , N Y H u ) B : 4 7 4 h 4 h "
};
